<svg width="673" height="109" fill="none" xmlns="http://www.w3.org/2000/svg"><path d="M117.051 30.7431H69.0534c-5.7737 0-10.4543 4.6806-10.4543 10.4543v2.6805c0 5.7737 4.6806 10.4542 10.4543 10.4542h47.9976c5.773 0 10.454-4.6805 10.454-10.4542v-2.6805c0-5.7737-4.681-10.4543-10.454-10.4543zM91.0956 58.6443H67.6649c-5.0069 0-9.0658 4.0589-9.0658 9.0657v2.3246c0 5.0069 4.0589 9.0657 9.0658 9.0657h23.4307c5.0069 0 9.0654-4.0588 9.0654-9.0657V67.71c0-5.0068-4.0585-9.0657-9.0654-9.0657zM89.7046 83.4116H41.7072c-5.7737 0-10.4543 4.6805-10.4543 10.4542v2.6806c0 5.7736 4.6806 10.4546 10.4543 10.4546h47.9974c5.7737 0 10.4544-4.681 10.4544-10.4546v-2.6806c0-5.7737-4.6807-10.4542-10.4544-10.4542zM13.4776 83.4116h-3.0234C4.6805 83.4116 0 88.0921 0 93.8657v2.6806C0 102.32 4.6805 107 10.4542 107h3.0234c5.7737 0 10.4541-4.68 10.4541-10.4537v-2.6806c0-5.7736-4.6804-10.4541-10.4541-10.4541zM152.014 87.44c2.436 14.764 16.914 20.928 33.828 20.928 18.921 0 32.682-8.313 32.682-24.2257 0-10.6073-6.307-18.7773-19.925-21.6448l-16.914-3.4403c-4.588-.9972-5.448-3.0102-5.448-5.0162 0-2.5811 2.007-5.5912 8.172-5.5912 7.023 0 11.323 4.0143 12.04 8.4576l20.928-4.1569c-2.866-12.4719-14.764-20.6407-32.682-20.6407-18.205 0-30.962 9.6032-30.962 24.3686 0 11.3239 7.597 18.4909 20.928 20.9259l14.621 2.8687c5.302.9972 7.167 2.8663 7.167 5.3025 0 3.1551-3.298 5.7339-9.317 5.7339-6.164 0-11.754-2.2936-12.757-8.4576L152.014 87.44zM258.981 88.2992c-10.321 0-17.202-7.4534-17.202-18.0607 0-10.4647 6.881-18.062 17.202-18.062 7.31 0 13.187 4.0143 15.193 12.7583l21.502-5.1611c-4.014-16.914-19.207-27.6639-36.695-27.6639-21.502 0-39.278 15.4808-39.278 38.1287 0 22.7916 17.776 38.1295 39.278 38.1295 17.917 0 33.111-11.0372 36.695-28.095l-21.072-4.5871c-2.436 8.744-8.313 12.6133-15.623 12.6133zM346.687 33.2553c-11.754 0-19.64 6.164-24.798 14.7642v-13.76h-22.936v71.9585h22.936V83.7121c0-18.6336 8.743-26.9474 24.798-26.9474h4.156l.997-22.9355c-1.721-.429-3.154-.5681-5.16-.5681l.007-.0058zM368.311 0c-7.739 0-13.187 6.0203-13.187 13.0435 0 7.312 5.448 12.7582 13.187 12.7582 7.741 0 13.331-5.4462 13.331-12.7582C381.642 6.0203 376.052 0 368.311 0zm11.467 106.218V34.2594h-22.934v71.9586h22.934zM478.091 32.1098c-11.18 0-19.78 4.7285-25.514 12.1831-4.873-7.8836-13.473-12.1831-23.509-12.1831-9.317 0-16.34 3.2953-21.214 8.7428v-6.593h-22.935v71.9594h22.935V70.955c0-12.0405 5.448-18.2045 13.762-18.2045 6.879 0 12.183 5.1611 12.183 13.3311v40.1374h22.935V70.955c0-12.0405 5.591-18.2045 14.048-18.2045 6.738 0 12.04 5.1611 12.04 13.3311v40.1374h22.793V61.2069c0-17.4879-12.185-29.0971-27.524-29.0971zM554.19 32.1096c-9.32 0-16.772 2.8663-22.363 7.8836V3.0101h-22.934V106.218h22.934v-5.735c5.591 5.019 13.043 7.885 22.363 7.885 19.063 0 35.118-15.3381 35.118-38.1297 0-22.6479-16.055-38.1287-35.118-38.1287zm-4.731 56.7634c-9.317 0-17.632-7.4546-17.632-18.6347 0-11.0387 8.315-18.6336 17.632-18.6336 10.033 0 17.344 7.5949 17.344 18.6336 0 11.1801-7.311 18.6347-17.344 18.6347zM673 34.2596h-22.936v5.7338c-5.59-5.0172-13.043-7.8836-22.361-7.8836-19.064 0-35.119 15.4808-35.119 38.1287 0 22.7916 16.055 38.1295 35.119 38.1295 9.318 0 16.771-2.866 22.361-7.884v5.735H673V34.2596zm-40.567 54.6136c-10.033 0-17.345-7.4546-17.345-18.6347 0-11.0387 7.312-18.6336 17.345-18.6336 9.317 0 17.631 7.5949 17.631 18.6336 0 11.1801-8.314 18.6347-17.631 18.6347z" fill="#2B283A"/></svg>